<svg xmlns="http://www.w3.org/2000/svg" xmlns:xlink="http://www.w3.org/1999/xlink" xmlns:lucid="lucid" width="2240" height="1460"><g transform="translate(860 -260)" lucid:page-tab-id="0_0"><path d="M-372 700c17.67 0 32 17.9 32 40s-14.33 40-32 40h-96c-17.67 0-32-17.9-32-40s14.33-40 32-40z" stroke="#000" stroke-opacity="0" fill-opacity="0"/><use xlink:href="#a" transform="matrix(1,0,0,1,-495,705) translate(49.26543209876544 39.24305555555556)"/><path d="M-380 1346a6 6 0 0 1 6-6h1728a6 6 0 0 1 6 6v348a6 6 0 0 1-6 6H-374a6 6 0 0 1-6-6z" stroke="#000" stroke-width="4" fill="#fff"/><path d="M-380 286a6 6 0 0 1 6-6h1728a6 6 0 0 1 6 6v948a6 6 0 0 1-6 6H-374a6 6 0 0 1-6-6z" stroke="#232f3e" stroke-width="4" fill="#fff" fill-opacity="0"/><path d="M-380 280h56v56h-56v-56z" stroke="#fff" stroke-opacity="0" fill="#232f3e"/><path d="M-361.78 305.87c-.04.48.04.87.17 1.34.1.4.28.7.48 1.07.04.1.08.22.08.34 0 .2-.12.36-.28.46l-.95.62c-.12.08-.25.13-.37.13-.16 0-.33-.06-.45-.2-.2-.22-.36-.43-.52-.7-.17-.25-.3-.53-.45-.86-1.1 1.37-2.63 2.1-4.4 2.06-1.15.06-2.13-.3-2.96-1.08-.78-.8-1.14-1.76-1.1-2.85-.05-1.23.4-2.28 1.35-3.08 1.07-.86 2.3-1.23 3.66-1.16.57 0 1.02.02 1.6.1.57.1 1.1.2 1.72.33v-1.1c.08-.88-.16-1.67-.7-2.37-.74-.56-1.56-.8-2.46-.7-.53 0-1.03.07-1.6.2-.58.13-1.03.3-1.6.5l-.5.2h-.24c-.2 0-.33-.16-.33-.45v-.75c0-.18.04-.33.12-.5.12-.16.24-.26.4-.33.66-.3 1.2-.5 1.9-.67.77-.2 1.47-.3 2.3-.28 1.47-.13 2.78.26 3.9 1.2.94 1.05 1.35 2.28 1.22 3.67zm-6.07 2.28c.57 0 1.06-.1 1.6-.28.57-.2 1.02-.5 1.44-.96.23-.27.4-.56.48-.93.12-.45.16-.84.16-1.3V304c-.53-.1-.94-.17-1.44-.2h-1.4c-.8-.08-1.55.12-2.2.58-.54.45-.8 1.04-.75 1.73-.04.6.13 1.16.54 1.6.44.38.97.52 1.55.45zm12 1.6c-.22 0-.42-.03-.6-.15-.15-.17-.23-.36-.32-.6l-3.5-11.5-.1-.62c0-.24.1-.37.36-.37h1.47c.2 0 .37.04.57.15.17.18.25.37.3.6l2.5 9.96 2.38-9.93c0-.24.08-.44.28-.6.17-.12.37-.16.58-.15h1.2c.24 0 .4.03.6.15.17.18.25.36.3.6l2.33 9.94 2.56-10c.04-.2.16-.4.33-.58.15-.1.36-.17.56-.14h1.4c.16 0 .33.12.37.3v.31s0 .2-.12.35l-3.6 11.53c-.05.22-.13.42-.3.6-.2.1-.37.14-.57.13h-1.27c-.25.04-.46-.02-.62-.15-.16-.17-.25-.36-.3-.6l-2.3-9.6-2.28 9.6c-.05.24-.13.44-.3.6-.2.13-.4.2-.6.16zm19.2.38c-.82 0-1.52-.07-2.3-.25-.65-.13-1.15-.3-1.72-.6-.2-.1-.37-.23-.45-.4-.08-.16-.12-.3-.12-.45v-.75c0-.3.12-.46.32-.46h.3l.36.15c.58.24 1.03.4 1.6.5.62.15 1.15.2 1.8.2.8.06 1.5-.1 2.2-.48.48-.32.77-.83.73-1.42.04-.4-.13-.76-.38-1.04-.46-.4-.95-.65-1.52-.8l-2.18-.67c-.94-.26-1.73-.74-2.38-1.5-.5-.66-.74-1.36-.74-2.2 0-.58.12-1.07.4-1.6.3-.5.63-.88 1.08-1.2.5-.4.98-.62 1.6-.8.66-.17 1.2-.25 1.9-.24.32-.03.6-.03.97 0l1 .16.8.22.67.26c.16.1.28.22.45.38.08.15.12.3.12.5v.7c0 .3-.12.47-.37.47-.2-.03-.37-.08-.57-.18-.95-.42-1.8-.6-2.88-.58-.7-.04-1.3.08-1.97.4-.5.3-.74.8-.7 1.36 0 .4.13.76.45 1.05.5.4 1 .65 1.6.82l2.1.67c.95.24 1.7.7 2.3 1.44.5.64.7 1.3.7 2.1 0 .63-.13 1.17-.37 1.73-.3.55-.62.95-1.1 1.32-.5.4-1 .66-1.6.84-.75.23-1.4.33-2.15.34zM-333.9 317.5c-5.6 3.8-11.36 5.56-18.15 5.54-8.54.05-15.82-2.74-22.16-8.45-.5-.42 0-1 .48-.68 7.07 4.05 14.03 5.9 22.2 5.9 6.1-.04 11.3-1.1 16.93-3.47.83-.35 1.52.54.7 1.13z" stroke="#fff" stroke-opacity="0" fill="#fff"/><path d="M-331.84 315.2c-.64-.8-4.16-.38-5.75-.2-.46 0-.53-.36-.1-.67 2.8-1.97 7.42-1.4 8-.73.6.67-.14 5.28-2.78 7.48-.4.35-.78.15-.6-.28.54-1.52 1.86-4.83 1.24-5.6z" stroke="#fff" stroke-opacity="0" fill="#fff"/><use xlink:href="#b" transform="matrix(1,0,0,1,-309,300) translate(0 14.4)"/><use xlink:href="#c" transform="matrix(1,0,0,1,-309,300) translate(45.3 14.4)"/><path d="M100 446a6 6 0 0 1 6-6h968a6 6 0 0 1 6 6v428a6 6 0 0 1-6 6H106a6 6 0 0 1-6-6z" stroke="#248814" stroke-width="4" fill="#fff" fill-opacity="0"/><path d="M100 440h56v56h-56v-56z" stroke="#fff" stroke-opacity="0" fill="#248814"/><path d="M131.76 468.3h-1.18v-1.1c-.12-1.73-1.48-3.07-3.2-3.2-1.9-.13-3.54 1.3-3.67 3.2v1.07h-1.17c-.45 0-.8.36-.8.8v6.13c0 .44.35.8.8.8h9.23c.44 0 .8-.36.8-.8v-6.1c0-.44-.36-.8-.8-.8zm-6.4-1.06c.1-1.03 1-1.77 2-1.67.9.08 1.58.76 1.67 1.67v1.06h-3.72zm5.65 7.08h-7.67v-4.42h7.63z" stroke="#fff" stroke-opacity="0" fill="#fff"/><path d="M142.27 465.75c-.1-2.45-1.58-4.48-3.87-5.3-1.58-.47-3.16-.14-4.4.9-.68-1.45-1.47-2.6-2.6-3.76-3.24-3.36-7.94-4.3-12.18-2.4-4.04 1.9-6.4 5.63-6.54 10.05v.7c-3.4.98-5.66 4.08-5.5 7.65v.63c.38 4.28 3.92 7.52 8.2 7.47h26s7.42-.63 7.42-8.1c.04-3.9-2.66-7.2-6.53-7.86zm-.96 14.38h-25.9c-3.47.06-6.3-2.52-6.6-5.96v-.52c-.15-3.05 1.93-5.7 4.92-6.3.38-.12.63-.48.6-.9-.06-.4-.06-.73 0-1.14.07-3.78 2.1-6.94 5.52-8.6 1.25-.56 2.4-.8 3.83-.84 2.62.08 4.87 1.04 6.7 2.94 1.25 1.3 2.04 2.6 2.62 4.3.03.15.1.28.24.37.37.27.87.2 1.12-.17.83-1.18 2.25-1.67 3.62-1.3 1.8.72 2.87 2.4 2.83 4.32-.07.4.22.82.64.9 3.57.36 6.2 3.55 5.82 7.12-.3 3.13-2.7 5.52-5.82 5.85z" stroke="#fff" stroke-opacity="0" fill="#fff"/><use xlink:href="#d" transform="matrix(1,0,0,1,171,460) translate(0 14.4)"/><use xlink:href="#e" transform="matrix(1,0,0,1,171,460) translate(55.5 14.4)"/><use xlink:href="#f" transform="matrix(1,0,0,1,171,460) translate(116.4 14.4)"/><path d="M260 506a6 6 0 0 1 6-6h568a6 6 0 0 1 6 6v328a6 6 0 0 1-6 6H266a6 6 0 0 1-6-6z" fill="#fff" fill-opacity="0"/><path d="M289.67 500h15.77m15.78 0H337m15.78 0h15.78m15.77 0h15.78m15.8 0h15.77m15.77 0h15.78m15.78 0h15.78m15.78 0h15.77m15.78 0h15.8m15.77 0h15.77m15.78 0H621m15.78 0h15.78m15.77 0h15.78m15.8 0h15.77m15.77 0h15.78m15.78 0h15.78m15.78 0h15.77m15.78 0h7.9l.94.07.9.22.88.35.8.5.72.6.6.72.5.8.37.88.23.9.07.95v8.2m0 16.4V547m0 16.4v16.4m0 16.4v16.4m0 16.4v16.4m0 16.4v16.4m0 16.4V711m0 16.4v16.4m0 16.4v16.4m0 16.4v16.4m0 16.4v8.2l-.07.94-.22.9-.35.88-.5.8-.6.72-.72.6-.8.5-.88.37-.9.23-.95.07h-7.9m-15.77 0h-15.77m-15.78 0H763m-15.78 0h-15.78m-15.77 0H699.9m-15.8 0h-15.77m-15.77 0h-15.78M621 840h-15.78m-15.78 0h-15.77m-15.78 0h-15.8m-15.77 0h-15.77m-15.78 0H479m-15.78 0h-15.78m-15.77 0H415.9m-15.8 0h-15.77m-15.77 0h-15.78M337 840h-15.78m-15.78 0h-15.77m-15.78 0H266l-.94-.07-.9-.22-.88-.35-.8-.5-.72-.6-.6-.72-.5-.8-.37-.88-.23-.9-.07-.95v-8.2m0-16.4V793m0-16.4v-16.4m0-16.4v-16.4m0-16.4v-16.4m0-16.4v-16.4m0-16.4V629m0-16.4v-16.4m0-16.4v-16.4m0-16.4v-16.4m0-16.4V506l.07-.94.22-.9.35-.88.5-.8.6-.72.72-.6.8-.5.88-.37.9-.23.95-.07h7.9" stroke="#d86613" stroke-width="4" fill="none"/><path d="M260 500h56v56h-56v-56z" stroke="#fff" stroke-opacity="0" stroke-width="2" fill="#d86613"/><path d="M305.18 530.24h-3.75v-1.48h3.75v-17.94h-17.94v3.74h-1.5v-3.74c0-.82.68-1.5 1.5-1.5h17.94c.8 0 1.48.68 1.48 1.5v17.94c0 .8-.67 1.48-1.5 1.48zM288.75 546.67H270.8c-.8 0-1.47-.67-1.47-1.5v-17.93c0-.8.67-1.48 1.48-1.48h3.75v1.48h-3.74v17.94h17.95v-3.74h1.48v3.74c0 .82-.67 1.5-1.48 1.5z" stroke="#fff" stroke-opacity="0" stroke-width="2" fill="#fff"/><path d="M299.95 521.3v-1.52h-2.25c-.05-.8-.7-1.43-1.48-1.48v-2.25h-1.5v2.25h-2.23v-2.25H291v2.25h-2.26v-2.25h-1.48v2.25H285v-2.25h-1.47v2.25h-2.24v-2.25h-1.52v2.25c-.8.05-1.43.7-1.48 1.48h-2.25v1.5h2.25v2.25h-2.25V525h2.25v2.26h-2.25v1.48h2.25V531h-2.25v1.5h2.25v2.2h-2.25v1.52h2.25c.05.8.7 1.43 1.48 1.48v2.25h1.5v-2.25h2.25v2.25H285v-2.25h2.26v2.25h1.48v-2.25H291v2.25h1.5v-2.25h2.2v2.25h1.52v-2.25c.8-.05 1.43-.7 1.48-1.48h2.25v-1.5h-2.25v-2.23h2.25V531h-2.25v-2.26h2.25v-1.48h-2.25V525h2.25v-1.47h-2.25v-2.24zm-3.73 14.78c0 .07-.07.14-.14.14h-16.16c-.07 0-.14-.07-.14-.14v-16.16c0-.07.07-.14.14-.14h16.16c.07 0 .14.07.14.14z" stroke="#fff" stroke-opacity="0" stroke-width="2" fill="#fff"/><use xlink:href="#g" transform="matrix(1,0,0,1,330.99999999999994,520) translate(0 14.4)"/><use xlink:href="#h" transform="matrix(1,0,0,1,330.99999999999994,520) translate(41.95 14.4)"/><use xlink:href="#i" transform="matrix(1,0,0,1,330.99999999999994,520) translate(81.9 14.4)"/><path d="M540 575.6h120V637H540v-61.4z" fill="#9d5025"/><path d="M540 570h120v61.4H540V570z" fill="#f58536"/><path d="M565.92 573.67h5.65v54.08h-5.65v-54.08zM576.34 573.67H582v54.08h-5.66v-54.08zM586.75 573.67h5.65v54.08h-5.65v-54.08zM545.1 573.67h5.64v54.08h-5.65v-54.08zM555.5 573.67h5.66v54.08h-5.66v-54.08zM597.17 573.67h5.65v54.08h-5.65v-54.08zM607.58 573.67h5.66v54.08h-5.66v-54.08zM618 573.67h5.65v54.08H618v-54.08zM628.4 573.67h5.66v54.08h-5.66v-54.08zM638.82 573.67h5.65v54.08h-5.65v-54.08zM649.24 573.67h5.65v54.08h-5.66v-54.08z" fill="#fbbf93"/><path d="M546.56 575.13h4.2v52.62h-4.2v-52.62zM556.98 575.13h4.2v52.62h-4.2v-52.62zM567.4 575.13h4.18v52.62h-4.18v-52.62zM577.8 575.13h4.2v52.62h-4.2v-52.62zM588.22 575.13h4.18v52.62h-4.18v-52.62zM598.63 575.13h4.2v52.62h-4.2v-52.62zM609.05 575.13h4.2v52.62h-4.2v-52.62zM619.46 575.13h4.2v52.62h-4.2v-52.62zM629.88 575.13h4.2v52.62h-4.2v-52.62zM640.3 575.13h4.18v52.62h-4.18v-52.62zM650.7 575.13h4.2v52.62h-4.2v-52.62z" fill="#fff"/><path d="M540 710.65h120v61.4H540v-61.4z" fill="#9d5025"/><path d="M540 705.07h120v61.4H540v-61.4z" fill="#f58536"/><path d="M565.92 708.74h5.65v54.08h-5.65v-54.08zM576.34 708.74H582v54.08h-5.66v-54.08zM586.75 708.74h5.65v54.08h-5.65v-54.08zM545.1 708.74h5.64v54.08h-5.65v-54.08zM555.5 708.74h5.66v54.08h-5.66v-54.08zM597.17 708.74h5.65v54.08h-5.65v-54.08zM607.58 708.74h5.66v54.08h-5.66v-54.08zM618 708.74h5.65v54.08H618v-54.08zM628.4 708.74h5.66v54.08h-5.66v-54.08zM638.82 708.74h5.65v54.08h-5.65v-54.08zM649.24 708.74h5.65v54.08h-5.66v-54.08z" fill="#fbbf93"/><path d="M546.56 710.2h4.2v52.62h-4.2V710.2zM556.98 710.2h4.2v52.62h-4.2V710.2zM567.4 710.2h4.18v52.62h-4.18V710.2zM577.8 710.2h4.2v52.62h-4.2V710.2zM588.22 710.2h4.18v52.62h-4.18V710.2zM598.63 710.2h4.2v52.62h-4.2V710.2zM609.05 710.2h4.2v52.62h-4.2V710.2zM619.46 710.2h4.2v52.62h-4.2V710.2zM629.88 710.2h4.2v52.62h-4.2V710.2zM640.3 710.2h4.18v52.62h-4.18V710.2zM650.7 710.2h4.2v52.62h-4.2V710.2z" fill="#fff"/><path d="M600 616a6 6 0 0 1 6-6h228a6 6 0 0 1 6 6v48a6 6 0 0 1-6 6H606a6 6 0 0 1-6-6z" stroke="#000" stroke-opacity="0" fill="#fff" fill-opacity="0"/><use xlink:href="#j" transform="matrix(1,0,0,1,605,615) translate(66.17901234567901 28.930555555555557)"/><path d="M600 756a6 6 0 0 1 6-6h228a6 6 0 0 1 6 6v48a6 6 0 0 1-6 6H606a6 6 0 0 1-6-6z" stroke="#000" stroke-opacity="0" fill="#fff" fill-opacity="0"/><use xlink:href="#k" transform="matrix(1,0,0,1,605,755) translate(67.46913580246914 28.930555555555557)"/><path d="M600.5 688.68h-1v-2.2h1zm0-23.55h-1v-11.75h1z" stroke="#3a414a" stroke-width=".05" fill="#3a414a"/><path d="M600 703.45l-4.63-14.27h9.26z" fill="#3a414a"/><path d="M600 705.07l-5.32-16.4h10.64zm-3.95-15.4l3.95 12.16 3.95-12.15z" stroke="#3a414a" stroke-width=".05" fill="#3a414a"/><path d="M604.63 652.88h-9.26L600 638.6z" fill="#3a414a"/><path d="M605.32 653.38h-10.64l5.32-16.4zm-9.27-1h7.9L600 640.23z" stroke="#3a414a" stroke-width=".05" fill="#3a414a"/><use xlink:href="#l" transform="matrix(1,0,0,1,559.0864197530864,665.1343862565806) translate(0 14.222222222222223)"/><use xlink:href="#m" transform="matrix(1,0,0,1,559.0864197530864,665.1343862565806) translate(52.24691358024692 14.222222222222223)"/><path d="M-30 587.47c27.6 0 50 23.53 50 52.53s-22.4 52.53-50 52.53S-80 669-80 640s22.4-52.53 50-52.53zm0 100.33c25.1 0 45.5-21.43 45.5-47.8 0-26.37-20.4-47.8-45.5-47.8s-45.5 21.43-45.5 47.8c0 26.37 20.4 47.8 45.5 47.8zm29.6-33.5c1.3 0 2.3 1.15 2.3 2.4v10.5c0 1.27-1 2.32-2.3 2.32h-9.9c-1.2 0-2.2-1.05-2.2-2.3v-10.5c0-1.27 1-2.43 2.2-2.43h1.9v-5.68h-9.4v5.67h1.7c1.3 0 2.3 1.15 2.3 2.4v10.5c0 1.27-1 2.32-2.3 2.32H-26c-1.3 0-2.3-1.05-2.3-2.3v-10.5c0-1.27 1-2.43 2.3-2.43h3.7v-8c0-1.36 1-2.4 2.2-2.4h3.7v-5.7h-27.2v5.7h3.7c1.2 0 2.2 1.04 2.2 2.4v8h3.7c1.3 0 2.3 1.15 2.3 2.4v10.5c0 1.27-1 2.32-2.3 2.32h-9.9c-1.3 0-2.3-1.05-2.3-2.3v-10.5c0-1.27 1-2.43 2.3-2.43h1.7v-5.68h-9.4v5.67h1.7c1.3 0 2.3 1.15 2.3 2.4v10.5c0 1.27-1 2.32-2.3 2.32h-9.7c-1.3 0-2.3-1.05-2.3-2.3v-10.5c0-1.27 1-2.43 2.3-2.43h3.5v-8c0-1.36 1-2.4 2.2-2.4h5.7v-8.1c0-1.26 1-2.3 2.3-2.3h13.6v-5.7h-13.6c-1.3 0-2.3-1.14-2.3-2.4v-18.8c0-1.38 1-2.43 2.3-2.43h31.8c1.3 0 2.3 1.05 2.3 2.42v18.8c0 1.26-1 2.4-2.3 2.4h-13.6v5.7h13.6c1.3 0 2.3 1.04 2.3 2.3v8.1h5.7c1.2 0 2.2 1.04 2.2 2.4v8zm-43.2-31.32h27.2V609h-27.2zm2 41.82h5.4v-5.68h-5.4zm17.9 0h5.3v-5.68h-5.3zm15.7 0h5.4v-5.68H-8zm-49.4 0h5.2v-5.68h-5.2z" stroke="#000" stroke-opacity="0" fill="#4d27aa"/><path d="M-140 706a6 6 0 0 1 6-6H94a6 6 0 0 1 6 6v48a6 6 0 0 1-6 6h-228a6 6 0 0 1-6-6z" stroke="#000" stroke-opacity="0" fill="#fff" fill-opacity="0"/><use xlink:href="#n" transform="matrix(1,0,0,1,-135,705) translate(36.30246913580247 28.930555555555557)"/><use xlink:href="#o" transform="matrix(1,0,0,1,-135,705) translate(97.41358024691358 28.930555555555557)"/><path d="M-430 580h120v120h-120V580z" stroke="#fff" stroke-opacity="0" fill="#693cc5"/><path d="M-386.33 648.7c2.12.76 4.02 1.1 6.27 1.18 1.43.12 2.7-.23 3.86-1.07.92-.86 1.38-1.93 1.32-3.2.12-1.3-.3-2.47-1.25-3.4-1.26-.84-2.58-1.17-4.1-1.05-1.8.02-3.33.1-5.1.32v-2.26l.62-9.87h12.03V632H-382l-.43 6.7c1.1-.22 2.06-.3 3.2-.3 2.12-.15 3.96.48 5.58 1.86 1.44 1.4 2.12 3.17 2 5.18.07 2.08-.73 3.9-2.33 5.23-1.82 1.45-3.85 2.1-6.18 2-2.3 0-4.2-.38-6.3-1.32zM-360.2 639.1H-359.6c1.98-.14 3.72.42 5.25 1.7 1.37 1.3 2.02 2.93 1.9 4.8.07 2.06-.75 3.83-2.35 5.14-1.87 1.4-3.9 2.04-6.26 1.92-2.2 0-4.1-.42-6.12-1.3v-2.65c2.06.76 3.92 1.1 6.12 1.18 1.45.12 2.7-.26 3.87-1.1.97-.84 1.44-1.94 1.35-3.2 0-2.67-1.66-4-5.03-4-1.12 0-2.08.04-3.2.16v-2.18l6.94-7.55h-9.7v-2.7h13.44v2.62z" stroke="#fff" stroke-opacity="0" fill="#fff"/><path d="M-370 670.4c-.3 0-.57-.06-.82-.24-5.44-3.2-10.56-5.15-16.76-6.4-3.4-.58-14.4-3.2-14.4-11.18 0-3.62 1.42-6.04 3.2-9.06 2.76-4.1 4.17-8.23 4.36-13.15 0-4.74-1.22-8.7-3.84-12.67-.38-.6-.32-1.3.13-1.9l2.56-3.2c.5-.6 1.34-.76 2.04-.35 3.46 2 6.78 2.9 10.8 2.96 4.42.07 8.2-1.1 11.78-3.72.57-.4 1.34-.4 1.85 0 3.65 2.6 7.42 3.8 11.83 3.73 3.97-.05 7.36-1 10.8-2.95.72-.4 1.55-.24 2.06.36l2.55 3.2c.45.54.5 1.3.13 1.9-2.63 3.9-3.78 7.93-3.84 12.67 0 5.68 2.3 9.6 4.35 13.15 1.78 3.02 3.18 5.44 3.18 9.06 0 8-11 10.6-14.38 11.2-6.2 1.23-11.33 3.13-16.76 6.38-.26.18-.5.24-.83.24zm-24.93-53.6c2.5 4.27 3.64 8.48 3.64 13.4 0 6.57-2.6 11.13-4.78 14.74-1.6 2.84-2.7 4.73-2.7 7.46 0 5.68 9.8 7.76 11.7 8.1 6.34 1.25 11.46 3.2 17.02 6.4 5.57-3.2 10.75-5.14 17-6.4 2-.34 11.78-2.42 11.78-8.1 0-2.73-1.1-4.62-2.75-7.46-2.1-3.6-4.8-8.17-4.8-14.75.07-4.92 1.22-9.13 3.78-13.4l-1.02-1.23c-3.58 1.83-7.1 2.72-11.2 2.72-4.73.05-8.76-1.07-12.8-3.68-3.95 2.6-8.04 3.73-12.78 3.67-4.1 0-7.54-.9-11.2-2.73z" stroke="#fff" stroke-opacity="0" fill="#fff"/><path d="M-369.97 680c-.4 0-.72-.08-1.04-.32-5.68-4.08-11.2-6.56-18-8-13.18-2.4-21.02-9.67-21.02-19.26.16-4.88 1.44-9.04 4.24-13.12 1.76-2.95 3.2-5.5 3.2-9.03-.16-4.88-2.16-8.95-5.84-12.23-.72-.48-.88-1.52-.32-2.24.08 0 .08-.08.08-.08 0-.16 9.44-11.43 11.6-14.3.23-.5.7-.73 1.2-.73.55 0 .95.15 1.35.55 3.03 3.6 6.95 5.6 11.74 5.84 4.48 0 8-2 11.35-6.4.63-.73 1.75-.9 2.47-.25l.24.24c3.37 4.47 6.88 6.38 11.36 6.38 4.8-.24 8.7-2.23 11.75-5.83.4-.4.8-.56 1.37-.56.48 0 .96.23 1.2.7 2.16 2.9 11.5 14.16 11.6 14.32.23.32.4.72.3 1.2 0 .48-.23.8-.55 1.12-3.68 3.28-5.67 7.35-5.83 12.23 0 3.52 1.5 6.08 3.18 9.03 2.8 4.08 4.08 8.24 4.24 13.12 0 9.6-7.83 16.87-21.02 19.26-6.8 1.44-12.3 3.84-18 8-.23.16-.55.32-.87.32zm-35.1-63.4c3.85 3.84 5.76 8.3 5.84 13.67 0 4.4-1.83 7.6-3.67 10.7-1.92 3.45-3.76 6.57-3.76 11.53 0 11.67 14 15.1 18.23 15.9 6.95 1.45 12.63 3.85 18.46 7.84 5.76-4 11.43-6.4 18.4-7.83 4.22-.8 18.2-4.23 18.2-15.9 0-4.96-1.83-8-3.74-11.52-1.85-3.2-3.7-6.4-3.7-10.7.1-5.37 2-9.84 5.84-13.68-2.15-2.56-6.95-8.4-9.5-11.67-3.6 3.5-7.84 5.35-12.8 5.5-5.2 0-9.6-2.15-12.8-6.14-3.26 3.98-7.66 6.14-12.86 6.14-4.95-.16-9.2-2-12.8-5.5-2.3 3.26-7.18 9.1-9.34 11.66z" stroke="#fff" stroke-opacity="0" fill="#fff"/><path d="M-180 586a6 6 0 0 1 6-6H54a6 6 0 0 1 6 6v48a6 6 0 0 1-6 6h-228a6 6 0 0 1-6-6z" stroke="#000" stroke-opacity="0" fill="#fff" fill-opacity="0"/><path d="M-280 760h120v120h-120V760z" stroke="#000" stroke-opacity="0" fill="url(#p)"/><path d="M-189.3 821.9v-18.85h-3.78v13.16h-3.14l-3.14 1.85c-1.57-2.53-4.13-4.53-7.02-5.38-2.56 1.15-5.6 1.08-8.17 0-4.95 1.46-8.42 5.92-8.75 11.08h11.3v3.76h-15.18c-1 0-1.9-.83-1.9-1.9v-22.55h-28.4v26.93c0 1.7 1.15 3.15 2.56 3.15h37.23v3.77h-37.22c-3.55 0-6.36-3.15-6.36-6.92v-40.62c0-3.77 2.8-6.92 6.36-6.92h63.16c3.46 0 6.27 3.15 6.27 6.92v32.54zm.26 35.77c-2.4 1.08-5.04 1.7-7.68 1.7-.74 0-1.48-.1-2.15-.16-3.3-.38-6.43-1.7-9-3.7-4.95-3.9-7.5-10-6.76-16.22.74-5.92 4.37-11.07 9.66-13.76 3.22-1.62 6.85-2.3 10.4-1.85 5.94.7 11.14 4.3 13.87 9.6 1.65 3.25 2.3 6.78 1.8 10.32-.4 3.53-1.8 6.84-4.1 9.53-1.66 1.85-3.73 3.46-6.04 4.54zm-5.94-30.3c-.58 0-1.16-.1-1.74-.1-2.3 0-4.46.55-6.52 1.55-4.2 2.16-7.02 6.23-7.6 10.92-.57 4.93 1.4 9.7 5.3 12.85 2.05 1.6 4.53 2.6 7.1 2.9 2.63.32 5.35-.14 7.75-1.22 1.82-.84 3.48-2.15 4.8-3.6 1.8-2.17 2.97-4.7 3.3-7.55.33-2.77-.16-5.62-1.5-8.15-2.13-4.16-6.26-7-10.88-7.62zm5.7-28v-10c0-1.7-1.16-3.16-2.48-3.16h-63.16c-1.4 0-2.56 1.47-2.56 3.16v10h28.4v-7.54c0-1 .9-1.84 1.9-1.84h32.28c1 0 1.8.84 1.8 1.84v7.54zm-7.52-5.7h-28.48v23.23c1.8-3.3 4.78-6 8.5-7.46-1.16-1.46-1.73-3.23-1.73-5.08 0-4.7 3.78-8.46 8.5-8.46 4.7 0 8.5 3.77 8.5 8.46 0 2-.75 3.85-2 5.4 2.65 1.14 4.97 3 6.7 5.3zm-1.98 54.46c-.33.3-.83.54-1.32.54-.5 0-1-.23-1.4-.54l-5.3-5.3 2.73-2.62 3.97 3.93 9.16-9.15 2.73 2.7zm-6.52-43.77c0-2.6-2.07-4.7-4.7-4.7-2.65 0-4.8 2.1-4.8 4.7 0 1.62 1 3.23 2.48 4 1.4.77 3.13.77 4.62 0 1.5-.77 2.4-2.38 2.4-4zm-48.38 8.16v-3.77h17v3.77zm0 9.38v-3.77h11.4v3.77zm13.3 0v-3.77h5.6v3.77z" stroke="#000" stroke-opacity="0" fill="#fff"/><path d="M-340 886a6 6 0 0 1 6-6h228a6 6 0 0 1 6 6v48a6 6 0 0 1-6 6h-228a6 6 0 0 1-6-6z" stroke="#000" stroke-opacity="0" fill="#fff" fill-opacity="0"/><use xlink:href="#q" transform="matrix(1,0,0,1,-335,885) translate(37.66049382716048 28.930555555555557)"/><path d="M440 1020h120v120H440v-120z" stroke="#fff" stroke-opacity="0" stroke-width="2" fill="#3b48cc"/><path d="M520.4 1084.78l-10.6 10.55c2-.56 3.65-1.2 5.5-2.24 1.1.63 1.68 1.67 1.9 2.87 0 2.96-6.2 6.16-15.4 7.43-3.05.4-5.55.56-8.6.56h-1.58c-12.95-.24-22.42-4.3-22.42-8 .17-1.2.82-2.15 1.9-2.87 5 2.8 13.18 4.47 22.1 4.47h.17l.92-3.2h-1.1c-8.8 0-16.98-1.76-21.28-4.47-1.74-1.12-2.72-2.4-2.72-3.44v-7.43c4.9 3.75 14.64 5.67 24 5.67 1.25 0 2.5 0 3.76-.08l.92-3.2c-1.63.08-3.1.16-4.68.16-13.7 0-24-4.23-24-8 .17-1.27.82-2.23 1.9-2.87 4.42 2.5 11.22 4 18.9 4.4l.1-3.2c-7.56-.4-14.42-2-18.18-4.47-1.74-1.04-2.66-2.3-2.72-3.43v-7.36c4.9 3.76 14.64 5.68 24 5.68h.33l1.74-3.2h-2.07c-13.7 0-24-4.16-24-8 0-3.75 10.3-8 24-8 4.85 0 8.98.5 13.72 1.6h8.8c-4.83-2.94-13.1-4.78-22.52-4.78-13.17 0-27.2 3.9-27.2 11.2V1064c.1 1.9.92 3.5 2.44 4.7-1.52 1.3-2.34 2.9-2.45 4.8v12.8c.1 2 .92 3.6 2.44 4.88-1.52 1.2-2.34 2.8-2.45 4.8v13.1c.43 7.04 14.2 10.8 27.2 10.8s26.78-3.77 27.2-10.88V1095.88c-.04-1.9-.9-3.6-2.44-4.8v.02c1.53-1.2 2.34-2.88 2.45-4.8zm-3.2 23.98c0 3.76-10.28 8-24 8-13.7 0-24-4.16-24-8v-7.35c4.9 3.68 14.64 5.68 24 5.68s19.1-2 24-5.67z" stroke="#fff" stroke-opacity="0" stroke-width="2" fill="#fff"/><path d="M476 1064.03c0 1.1-.9 2-2 2s-2-.9-2-2 .9-2 2-2 2 .9 2 2zM476 1086.43c0 1.1-.9 2-2 2s-2-.9-2-2 .9-2 2-2 2 .9 2 2zM476 1108.83c0 1.1-.9 2-2 2s-2-.9-2-2 .9-2 2-2 2 .9 2 2zM497.2 1102.37c-.3 0-.53-.06-.8-.22-.66-.38-.94-1.14-.74-1.85l8.98-29.95h-9.06c-.88.06-1.6-.65-1.6-1.58 0-.27.04-.54.2-.76l9.58-19.2c.28-.56.8-.88 1.45-.88H526c.9-.06 1.62.65 1.66 1.52.04.22 0 .38-.04.6l-4.13 12.25h8.97c.88.05 1.6.76 1.6 1.63 0 .43-.16.76-.44 1.1l-35.2 36.8c-.32.38-.72.54-1.24.54zm1-35.18h8.6c.53 0 .97.2 1.3.6.27.43.4.92.23 1.4l-7.7 25.6 28.03-29.24h-7.46c-.88 0-1.64-.65-1.68-1.52 0-.22 0-.44.08-.6l4.1-12.3h-17.6z" stroke="#fff" stroke-opacity="0" stroke-width="2" fill="#fff"/><use xlink:href="#r" transform="matrix(1,0,0,1,410,1149) translate(49.29012345679012 17.77777777777778)"/><use xlink:href="#s" transform="matrix(1,0,0,1,410,1149) translate(33.30246913580247 44.44444444444444)"/><path d="M640 1020h120v120H640v-120z" stroke="#fff" stroke-opacity="0" fill="#d6242d"/><path d="M700.16 1116.37c-6.4 0-11.8-1.4-17.4-4.52l1.58-2.77c10.76 5.9 22.78 5.54 33.22-.87 15.6-9.53 20.4-29.93 10.84-45.52l-1.58 8-3.17-.64 2.3-11.66c.15-.87 1.02-1.38 1.9-1.23l11.7 2.33-.63 3.2-7.83-1.6c10.43 17.12 5.05 39.48-12.04 49.97-6 3.64-11.94 5.32-18.9 5.32zm-27.7-14c-.15.1-.3.1-.38 0l-11.63-2.9.8-3.06 7.42 1.9c-10.12-17.33-4.27-39.55 13.06-49.68 11.4-6.63 24.2-6.77 35.75-.5l-1.58 2.83c-10.6-5.75-22.47-5.53-32.83.73-15.66 9.4-20.72 29.72-11.3 45.38l2.05-8.23 3.08.73-2.92 11.58c-.16.73-.8 1.24-1.5 1.24zm40.36-6.83c-2.93 0-5.46-1.97-6.18-4.8h-13.2c-.88 3.4-4.36 5.45-7.76 4.58-3.48-.88-5.53-4.38-4.66-7.8.8-2.84 3.24-4.8 6.24-4.8.56 0 1.1.07 1.66.2l6.73-11.57c-2.53-2.4-2.7-6.48-.24-9.03 2.46-2.55 6.5-2.7 9.03-.22 2.6 2.4 2.7 6.4.24 9.03l-.24.22 6.72 11.58c.56-.14 1.1-.22 1.67-.22 3.55 0 6.4 2.86 6.4 6.42 0 3.5-2.85 6.42-6.4 6.42zm0-9.62c-1.75 0-3.17 1.46-3.17 3.2 0 1.75 1.43 3.2 3.17 3.2 1.8 0 3.24-1.45 3.24-3.2 0-1.74-1.43-3.2-3.24-3.2zm-25.56 0c-1.8 0-3.24 1.46-3.24 3.2 0 1.75 1.43 3.2 3.24 3.2 1.75 0 3.17-1.45 3.17-3.2 0-1.74-1.42-3.2-3.17-3.2zm6.17 1.6h13.22c.3-1.16.87-2.1 1.74-2.98l-6.74-11.66c-1.1.3-2.13.3-3.24 0l-6.65 11.65c.87.88 1.35 1.83 1.66 3zm6.57-23.96c-1.74 0-3.16 1.38-3.16 3.13 0 1.8 1.42 3.2 3.16 3.2 1.82 0 3.24-1.4 3.24-3.2 0-1.76-1.42-3.14-3.24-3.14z" stroke="#fff" stroke-opacity="0" fill="#fff"/><use xlink:href="#t" transform="matrix(1,0,0,1,610,1149) translate(17.592592592592595 17.77777777777778)"/><use xlink:href="#u" transform="matrix(1,0,0,1,610,1149) translate(73.5185185185185 17.77777777777778)"/><path d="M842.4 1020h120v120h-120v-120z" stroke="#fff" stroke-opacity="0" stroke-width="2" fill="#3b48cc"/><path d="M919.93 1065.17c0-4.63-9.1-6.8-17.6-6.8-8.5 0-17.6 2.17-17.6 6.8 0 .26.02.43.06.7v28.85c-.08 4.83 9.06 6.86 17.6 6.86 8.57 0 17.6-2.1 17.6-6.73v-29.68zm-17.57-3.6c9.3 0 14.4 2.56 14.4 3.6 0 1.03-5.05 3.58-14.4 3.58-9.38 0-14.4-2.5-14.4-3.58 0-1.04 5.05-3.6 14.4-3.6zm14.4 33.28c0 1.03-5.05 3.54-14.4 3.54-9.35 0-14.4-2.52-14.4-3.56v-5.05c3.36 1.85 9.04 2.7 14.4 2.7 5.36 0 10.97-.85 14.4-2.67zm0-9.12c0 1.04-5.05 3.6-14.4 3.6-9.38 0-14.4-2.56-14.4-3.6h.04v-6.1c3.4 1.82 9.03 2.7 14.4 2.7 5.36 0 10.97-.88 14.4-2.65zm0-10.2c0 1.04-5.05 3.63-14.4 3.63-9.38 0-14.4-2.6-14.4-3.63h.04v-6.22c3.42 1.83 9 2.65 14.4 2.65s11.07-.87 14.4-2.72zM867.86 1116.82h10.53v3.2H864c-.88 0-1.6-.72-1.6-1.6V1104h3.2v10.5l12-11.98 2.24 2.26zM942.4 1104.02v14.4c0 .9-.7 1.6-1.6 1.6h-14.4v-3.2h10.54l-11.82-11.85 2.26-2.25 11.82 11.8v-10.5zM942.4 1041.62v14.4h-3.2v-10.57l-11.82 11.83-2.26-2.26 11.8-11.8H926.4v-3.2h14.4c.9 0 1.6.7 1.6 1.6zM879.84 1055.2l-2.23 2.24-12-12V1056h-3.2v-14.4c0-.9.72-1.62 1.6-1.62h14.4v3.2h-10.54zM877.86 1094.34c-9.78-3.5-15.38-8.9-15.38-14.74 0-5.83 5.6-11.2 15.38-14.74l1.08 3c-8.3 3.02-13.27 7.38-13.27 11.74s4.98 8.72 13.27 11.73zM926.05 1094.7l-1.03-3.06c8.88-3 14.18-7.48 14.18-12.04 0-4.56-5.3-9.05-14.18-12.07l1.03-3.02c10.4 3.5 16.35 9.04 16.35 15.1 0 6.07-5.96 11.56-16.35 15.1z" stroke="#fff" stroke-opacity="0" stroke-width="2" fill="#fff"/><use xlink:href="#v" transform="matrix(1,0,0,1,812.4,1149) translate(22.808641975308646 17.77777777777778)"/><use xlink:href="#w" transform="matrix(1,0,0,1,812.4,1149) translate(110.40123456790124 17.77777777777778)"/><path d="M289.32 1558.56c.72.64 1.26.96 2.16 1.28.72.16 1.62.16 2.34 0 .72-.16 1.44-.48 2.16-1.12.54-.48.9-1.12 1.08-1.92l6.3-21.92 28.08-103.68c.18-.48.36-.96.9-1.44.36-.32 1.08-.48 1.62-.48s1.26.16 1.62.48c.54.48.72.96.9 1.44l3.06 8c1.08 2.88 2.88 5.28 5.04 7.36 2.34 2.08 5.04 3.52 8.1 4.16l26.28 7.04c2.52.8 4.86 2.08 6.48 4.16 1.8 1.92 2.7 4.32 3.06 6.88.18 3.04-.36 6.24-1.62 8.96-1.08 2.88-3.06 5.44-5.4 7.52l-6.48 5.44c-5.22 4.48-9 10.4-10.62 16.96-1.8 6.56-1.44 13.44.9 19.68l10.8 29.6c.18.64.54 1.28 1.08 1.76s1.26.8 1.98 1.12c.54.16 1.44.16 2.16.16.72-.16 1.26-.32 1.98-.8 13.5-9.76 24.12-23.04 30.42-38.4 6.12-15.36 7.92-32.16 4.86-48.32-3.24-17.44-11.7-33.44-24.3-46.08-12.6-12.48-28.8-21.12-46.44-24.64-12.24-2.4-25.02-2.4-37.26.32-12.24 2.56-23.94 7.68-34.02 14.88-10.08 7.2-18.54 16.48-24.84 27.2-6.3 10.56-10.26 22.4-11.7 34.56 0 .96 0 2.08.36 3.04s.9 1.76 1.62 2.56c.72.64 1.8 1.28 2.7 1.6 1.08.32 2.16.32 3.06.16 3.6-.32 7.2.16 10.44 1.28 3.42 1.12 6.48 2.88 9.18 5.12 2.52 2.4 4.68 5.28 6.12 8.48 1.44 3.2 2.16 6.56 2.16 10.08v12.8c.18 12.8 5.04 25.12 13.68 34.72z" stroke="#000" stroke-opacity="0" fill="#25392b"/><path d="M351.42 1474.72c4.5 0 8.1-3.52 8.1-7.84 0-4.48-3.6-8-8.1-8s-8.28 3.52-8.28 8c0 4.32 3.78 7.84 8.28 7.84z" stroke="#000" stroke-opacity="0" fill="#25392b"/><path d="M210 1566a6 6 0 0 1 6-6h228a6 6 0 0 1 6 6v48a6 6 0 0 1-6 6H216a6 6 0 0 1-6-6z" stroke="#000" stroke-opacity="0" fill="#fff" fill-opacity="0"/><use xlink:href="#x" transform="matrix(1,0,0,1,214.99999999999994,1565) translate(27.46913580246914 30.27777777777778)"/><use xlink:href="#y" transform="matrix(1,0,0,1,214.99999999999994,1565) translate(138.39506172839506 30.27777777777778)"/><path d="M-619.07 669.4h-121.98c-4.9 0-8.95-4-8.95-8.88v-79.88c0-4.9 4.06-8.9 8.95-8.9h121.98c4.9 0 8.95 4 8.95 8.9v79.78c0 4.98-3.92 9-8.8 9h-.15zm-121.84-91.7c-1.7 0-3.1 1.28-3.1 2.94v79.78c0 1.66 1.4 3.03 3.1 3.03h121.97c1.68 0 2.94-1.37 2.94-3.03v-79.78c0-1.66-1.25-2.93-2.93-2.93zM-620.5 708.25h-119.1c-5.72-.03-10.34-4.64-10.34-10.36v-12.87c0-5.72 4.62-10.4 10.36-10.43h119.08c5.74 0 10.5 4.68 10.5 10.43v12.86c0 5.74-4.76 10.35-10.5 10.35zm-119.1-27.73c-2.36.04-4.32 2.06-4.32 4.5v12.87c0 2.44 1.96 4.4 4.33 4.43h119.1c2.52 0 4.48-2.02 4.48-4.5v-12.8c0-2.5-1.96-4.5-4.48-4.5z" stroke="#fff" stroke-opacity="0" fill="#232f3e"/><path d="M-624.16 658.28h-111.68c-1.65 0-2.94-1.36-2.94-2.94v-69.6c0-1.6 1.3-2.95 2.94-2.95h111.68c1.65 0 2.94 1.35 2.94 2.93v69.6c0 1.6-1.3 2.95-2.94 2.95zm-108.62-5.96h105.56v-63.57h-105.56zM-657.7 685.73h33.52c1.97 0 2.96 1 2.96 2.97v5.57c0 1.98-1 2.97-2.96 2.97h-33.52c-1.97 0-2.95-1-2.95-2.97v-5.57c0-1.98.98-2.97 2.95-2.97z" stroke="#fff" stroke-opacity="0" fill="#232f3e"/><path d="M-800 596a6 6 0 0 1 6-6h228a6 6 0 0 1 6 6v48a6 6 0 0 1-6 6h-228a6 6 0 0 1-6-6z" stroke="#000" stroke-opacity="0" fill="#fff" fill-opacity="0"/><use xlink:href="#z" transform="matrix(1,0,0,1,-795,595) translate(70.28703703703704 28.930555555555557)"/><path d="M379.54 604.5h-93.5l-.82.07-.76.18-.73.3-.67.4-.6.52-.5.6-.4.66-.3.73-.2.76-.06.82v24.5l-.08 1.06-.26 1.06-.42 1.02-.57.94-.72.83-.83.72-.94.57-1.02.42-1.06.26-1.06.08H21v-2h252.96l.82-.07.76-.18.73-.3.67-.4.6-.52.5-.6.4-.66.3-.73.2-.76.06-.82v-24.5l.08-1.06.26-1.06.42-1.02.57-.94.72-.83.83-.72.94-.57 1.02-.42 1.06-.26 1.06-.08h93.58zm141.96 0h-91.85v-2h91.85z" stroke="#3a414a" stroke-width=".05" fill="#3a414a"/><path d="M21.03 641h-1.08l.05-1-.02-1h1.05z" fill="#3a414a"/><path d="M21.05 641.02h-1.12l.05-1.02-.03-1.02h1.1zm-1.05-2l.02.98-.04.98H21V639z" stroke="#3a414a" stroke-width=".05" fill="#3a414a"/><path d="M536.76 603.5l-14.26 4.63v-9.26z" fill="#3a414a"/><path d="M540 603.5l-18.5 6v-12zm-16.5 3.26l10.03-3.26-10.03-3.26z" stroke="#3a414a" stroke-width=".05" fill="#3a414a"/><use xlink:href="#A" transform="matrix(1,0,0,1,379.5408021191533,588.8333333333334) translate(0 19.555555555555557)"/><path d="M275.1 639.08l1.06.26 1.02.42.94.57.83.72.72.83.57.94.42 1.02.26 1.06.08 1.06v86.57l.06.82.2.76.3.74.4.66.5.6.6.5.67.42.73.3.76.18.82.07H367v2h-81.04l-1.06-.1-1.06-.24-1.02-.42-.94-.57-.83-.7-.72-.85-.57-.93-.42-1.02-.26-1.07-.08-1.05v-86.56l-.06-.82-.2-.76-.3-.73-.4-.67-.5-.6-.6-.5-.67-.4-.73-.3-.76-.2-.82-.06H21v-2h253.04zm246.4 98.5v2H409.02v-2z" stroke="#3a414a" stroke-width=".05" fill="#3a414a"/><path d="M21.03 641h-1.08l.05-1-.02-1h1.05z" fill="#3a414a"/><path d="M21.05 641.02h-1.12l.05-1.02-.03-1.02h1.1zm-1.05-2l.02.98-.04.98H21V639z" stroke="#3a414a" stroke-width=".05" fill="#3a414a"/><path d="M536.76 738.57l-14.26 4.63v-9.27z" fill="#3a414a"/><path d="M540 738.57l-18.5 6v-12.02zm-16.5 3.26l10.03-3.26-10.03-3.26z" stroke="#3a414a" stroke-width=".05" fill="#3a414a"/><use xlink:href="#B" transform="matrix(1,0,0,1,366.9856747069451,723.9) translate(0 19.555555555555557)"/><path d="M465.05 920.18a10.46 10.46 0 0 1 9.03-5.18h49.44a10.46 10.46 0 0 1 9.03 5.18l14.42 24.64a10.25 10.25 0 0 1 0 10.36l-14.42 24.64a10.46 10.46 0 0 1-9.03 5.18h-49.44a10.46 10.46 0 0 1-9.03-5.18l-14.42-24.64a10.25 10.25 0 0 1 0-10.36z" stroke="#3a414a" stroke-width="4" fill="#00c2a8"/><path d="M330 1399.2v-9.85m0-9.85v-19.7m0-9.84v-19.7m0-9.85v-19.7m0-9.84v-19.7m0-9.84v-19.7m0-9.85v-19.7m0-9.85v-19.7m0-9.84v-19.7m0-9.85v-19.7m0-9.85v-19.7m0-9.84v-19.7m0-9.85v-19.7m0-9.86v-19.7m0-9.84v-19.7m0-9.85V956l.07-.94.22-.9.35-.88.5-.8.6-.72.72-.6.8-.5.87-.37.9-.23.95-.07h10.3m10.3 0h20.6m10.3 0h20.62m10.3 0h10.3" stroke="#3a414a" stroke-width="2" fill="none"/><path d="M331 1400.2h-2v-1.03h2z" stroke="#3a414a" stroke-width=".05" fill="#3a414a"/><path d="M444 950l-14.28 4.63v-9.26z" stroke="#3a414a" stroke-width="2" fill="#3a414a"/><path d="M-680 710.25V814a6 6 0 0 0 6 6h371.26" stroke="#3a414a" stroke-width="4" fill="none"/><path d="M-678 710.3h-4v-2.05h4z" stroke="#3a414a" stroke-width=".05" fill="#3a414a"/><path d="M-286.47 820l-14.27 4.63v-9.26z" stroke="#3a414a" stroke-width="4" fill="#3a414a"/><path d="M580.62 1080h38.76" stroke="#3a414a" stroke-width="3" fill="none"/><path d="M564.85 1080l14.27-4.63v9.27zM635.15 1080l-14.27 4.63v-9.27z" stroke="#3a414a" stroke-width="3" fill="#3a414a"/><path d="M778.5 1080h45.4" stroke="#3a414a" stroke-width="2" fill="none"/><path d="M763.24 1080l14.26-4.63v9.27zM839.16 1080l-14.26 4.63v-9.27z" stroke="#3a414a" stroke-width="2" fill="#3a414a"/><path d="M902.4 1019V744.57a6 6 0 0 0-6-6H678.5" stroke="#3a414a" stroke-width="2" fill="none"/><path d="M903.4 1020h-2v-1.03h2z" stroke="#3a414a" stroke-width=".05" fill="#3a414a"/><path d="M663.24 738.57l14.26-4.64v9.27z" stroke="#3a414a" stroke-width="2" fill="#3a414a"/><path d="M855.1 542.58l1.06.26 1.02.42.94.57.83.72.72.83.57.94.42 1.02.26 1.06.08 1.06v184.96l-2.18.35-2 1.46-.8 2.42.18 1.1 1.46 2 3.34 1.1v231.2l-.08 1.05-.26 1.06-.42 1.02-.57.94-.72.83-.83.72-.94.57-1.02.42-1.06.26-1.06.08h-148l-.82.07-.76.18-.73.3-.67.4-.6.52-.5.6-.4.66-.3.73-.2.76-.06.82V1019h-2v-33.04l.08-1.06.26-1.06.42-1.02.57-.94.72-.83.83-.72.94-.57 1.02-.42 1.06-.26 1.06-.08h148l.82-.07.76-.18.73-.3.67-.4.6-.52.5-.6.4-.66.3-.73.2-.76.06-.82V744.3l-2.57-.85-2.12-2.9-.33-2.06 1.14-3.5 2.92-2.13.98-.15V549.54l-.07-.82-.18-.76-.3-.73-.4-.67-.52-.6-.6-.5-.66-.4-.73-.3-.76-.2-.82-.06H706.04l-.82.07-.76.18-.73.3-.67.4-.6.52-.5.6-.4.66-.3.73-.2.76-.06.82v48l-.08 1.06-.26 1.06-.42 1.02-.57.94-.72.83-.83.72-.94.57-1.02.42-1.06.26-1.06.08H678.5v-2h15.46l.82-.07.76-.18.73-.3.67-.4.6-.52.5-.6.4-.66.3-.73.2-.76.06-.82v-48l.08-1.06.26-1.06.42-1.02.57-.94.72-.83.83-.72.94-.57 1.02-.42 1.06-.26 1.06-.08h148.08z" stroke="#3a414a" stroke-width=".05" fill="#3a414a"/><path d="M701 1020h-2v-1.03h2z" fill="#3a414a"/><path d="M701.02 1020.02H699v-1.07H701zm-2-1.02v.98H701v-.98z" stroke="#3a414a" stroke-width=".05" fill="#3a414a"/><path d="M677.5 608.13l-14.26-4.63 14.26-4.63z" fill="#3a414a"/><path d="M678.5 609.5l-18.5-6 18.5-6zm-12.03-6l10.03 3.26v-6.52zM283.57 621.74l2.12 2.9.15 1H521.5v2H284.15l-.35-2.2-1.46-2-2.42-.8-1.1.2-2 1.45-1.1 3.33h-81.5l-.53.04-.5.12-.46.18-.43.26-.37.32-.32.38-.25.43-.2.46-.1.5-.05.52v5l-2.18.35-2 1.46-.8 2.42.18 1.1 1.46 2 3.34 1.1v169.76l-.08 1.06-.26 1.06-.42 1.02-.57.94-.72.83-.83.72-.94.57-1.02.42-1.06.26-1.06.08H-159v-2h342.96l.82-.07.76-.18.73-.3.67-.4.6-.52.5-.6.4-.66.3-.73.2-.76.06-.82V645.72l-2.57-.83-2.12-2.92-.33-2.06 1.14-3.5 2.92-2.1.98-.17v-3.38l.06-.77.2-.8.3-.74.43-.7.52-.62.62-.52.7-.43.74-.32.8-.2.77-.05h80.12l.84-2.57 2.92-2.13 2.06-.33z" stroke="#3a414a" stroke-width=".05" fill="#3a414a"/><path d="M-158.97 821H-160v-2h1.03z" fill="#3a414a"/><path d="M-158.95 821.02h-1.08V819h1.08zm-1.03-2V821h.98V819z" stroke="#3a414a" stroke-width=".05" fill="#3a414a"/><path d="M536.76 626.63l-14.26 4.63V622z" fill="#3a414a"/><path d="M540 626.63l-18.5 6v-12zm-16.5 3.26l10.03-3.27-10.03-3.26z" stroke="#3a414a" stroke-width=".05" fill="#3a414a"/><path d="M-308 640h201.32" stroke="#3a414a" stroke-width="4" fill="none"/><path d="M-307.95 642H-310v-4h2.05z" stroke="#3a414a" stroke-width=".05" fill="#3a414a"/><path d="M-90.4 640l-14.28 4.63v-9.26z" stroke="#3a414a" stroke-width="4" fill="#3a414a"/><path d="M-608.12 640h155.38" stroke="#3a414a" stroke-width="4" fill="none"/><path d="M-608.07 642h-2.05v-4h2.05z" stroke="#3a414a" stroke-width=".05" fill="#3a414a"/><path d="M-436.47 640l-14.27 4.63v-9.26z" stroke="#3a414a" stroke-width="4" fill="#3a414a"/><path d="M330 1559.5v-106.6" stroke="#000" stroke-opacity="0" fill="none"/><path d="M330 1438.13l4.63 14.27h-9.26z" stroke="#000" stroke-opacity="0" fill-opacity="0"/><path d="M498.8 988.5v30" stroke="#000" stroke-opacity="0" stroke-width="3" fill="none"/><path d="M498.8 912.5V768.25a6 6 0 0 1 6-6h18.82" stroke="#000" fill="none"/><path d="M499.3 913h-1v-.5h1z" stroke="#000" stroke-width=".05"/><path d="M538.38 762.25l-14.26 4.64v-9.28z" stroke="#000"/><path d="M498.8 987.5v32" stroke="#000" fill="none"/><path d="M499.3 987.5h-1v-.5h1z" stroke="#000" stroke-width=".05"/><path d="M498.8 1019.5v.5" stroke="#000" fill="none"/><path d="M330 1558.5V1526a6 6 0 0 1 6-6h59.76a6 6 0 0 1 6 6v13.38" stroke="#000" stroke-opacity="0" stroke-width="3" fill="none"/><path d="M401.76 1555.15l-4.63-14.27h9.27z" stroke="#000" stroke-opacity="0" stroke-width="3" fill-opacity="0"/><path d="M451.5 1590H484a6 6 0 0 0 6-6v-3.4a6 6 0 0 0-6-6h-13.38" stroke="#000" stroke-opacity="0" stroke-width="3" fill="none"/><path d="M454.85 1574.6l14.27-4.62v9.27z" stroke="#000" stroke-opacity="0" stroke-width="3" fill-opacity="0"/><path d="M-140 1366.67a6 6 0 0 1 6-6H94a6 6 0 0 1 6 6V1434a6 6 0 0 1-6 6h-228a6 6 0 0 1-6-6z" stroke="#000" stroke-opacity="0" stroke-width="6" fill="#fff" fill-opacity="0"/><path d="M-180 1374.67a6 6 0 0 1 6-6h308a6 6 0 0 1 6 6V1426a6 6 0 0 1-6 6h-308a6 6 0 0 1-6-6z" stroke="#000" stroke-opacity="0" stroke-width="3" fill="#fff" fill-opacity="0"/><g><use xlink:href="#C" transform="matrix(1,0,0,1,-175,1373.6666666666665) translate(26.22530864197529 33.05555555555556)"/><use xlink:href="#D" transform="matrix(1,0,0,1,-175,1373.6666666666665) translate(88.49074074074072 33.05555555555556)"/><use xlink:href="#E" transform="matrix(1,0,0,1,-175,1373.6666666666665) translate(152.24999999999997 33.05555555555556)"/></g><path d="M-383.5 1520H-422h101.38" stroke="#000" stroke-opacity="0" stroke-width="3" fill="none"/><path d="M-304.86 1520l-14.26 4.63v-9.27z" stroke="#000" stroke-opacity="0" stroke-width="3" fill-opacity="0"/><path d="M-840 1006a6 6 0 0 1 6-6h408a6 6 0 0 1 6 6v88a6 6 0 0 1-6 6h-408a6 6 0 0 1-6-6z" stroke="#000" stroke-opacity="0" stroke-width="3" fill="#fff" fill-opacity="0"/><g><use xlink:href="#F" transform="matrix(1,0,0,1,-835,1005) translate(115.61728395061732 50.944444444444436)"/><use xlink:href="#G" transform="matrix(1,0,0,1,-835,1005) translate(223.37037037037038 50.944444444444436)"/></g><defs><path fill="#3a414a" d="M30-248c118-7 216 8 213 122C240-48 200 0 122 0H30v-248zM63-27c89 8 146-16 146-99s-60-101-146-95v194" id="H"/><path fill="#3a414a" d="M190 0L58-211 59 0H30v-248h39L202-35l-2-213h31V0h-41" id="I"/><path fill="#3a414a" d="M185-189c-5-48-123-54-124 2 14 75 158 14 163 119 3 78-121 87-175 55-17-10-28-26-33-46l33-7c5 56 141 63 141-1 0-78-155-14-162-118-5-82 145-84 179-34 5 7 8 16 11 25" id="J"/><g id="a"><use transform="matrix(0.06790123456790123,0,0,0.06790123456790123,0,0)" xlink:href="#H"/><use transform="matrix(0.06790123456790123,0,0,0.06790123456790123,17.586419753086417,0)" xlink:href="#I"/><use transform="matrix(0.06790123456790123,0,0,0.06790123456790123,35.172839506172835,0)" xlink:href="#J"/></g><path fill="#232f3e" d="M205 0l-28-72H64L36 0H1l101-248h38L239 0h-34zm-38-99l-47-123c-12 45-31 82-46 123h93" id="K"/><path fill="#232f3e" d="M266 0h-40l-56-210L115 0H75L2-248h35L96-30l15-64 43-154h32l59 218 59-218h35" id="L"/><path fill="#232f3e" d="M185-189c-5-48-123-54-124 2 14 75 158 14 163 119 3 78-121 87-175 55-17-10-28-26-33-46l33-7c5 56 141 63 141-1 0-78-155-14-162-118-5-82 145-84 179-34 5 7 8 16 11 25" id="M"/><g id="b"><use transform="matrix(0.05,0,0,0.05,0,0)" xlink:href="#K"/><use transform="matrix(0.05,0,0,0.05,11.35,0)" xlink:href="#L"/><use transform="matrix(0.05,0,0,0.05,28.299999999999997,0)" xlink:href="#M"/></g><path fill="#232f3e" d="M212-179c-10-28-35-45-73-45-59 0-87 40-87 99 0 60 29 101 89 101 43 0 62-24 78-52l27 14C228-24 195 4 139 4 59 4 22-46 18-125c-6-104 99-153 187-111 19 9 31 26 39 46" id="N"/><path fill="#232f3e" d="M24 0v-261h32V0H24" id="O"/><path fill="#232f3e" d="M100-194c62-1 85 37 85 99 1 63-27 99-86 99S16-35 15-95c0-66 28-99 85-99zM99-20c44 1 53-31 53-75 0-43-8-75-51-75s-53 32-53 75 10 74 51 75" id="P"/><path fill="#232f3e" d="M84 4C-5 8 30-112 23-190h32v120c0 31 7 50 39 49 72-2 45-101 50-169h31l1 190h-30c-1-10 1-25-2-33-11 22-28 36-60 37" id="Q"/><path fill="#232f3e" d="M85-194c31 0 48 13 60 33l-1-100h32l1 261h-30c-2-10 0-23-3-31C134-8 116 4 85 4 32 4 16-35 15-94c0-66 23-100 70-100zm9 24c-40 0-46 34-46 75 0 40 6 74 45 74 42 0 51-32 51-76 0-42-9-74-50-73" id="R"/><g id="c"><use transform="matrix(0.05,0,0,0.05,0,0)" xlink:href="#N"/><use transform="matrix(0.05,0,0,0.05,12.950000000000001,0)" xlink:href="#O"/><use transform="matrix(0.05,0,0,0.05,16.900000000000002,0)" xlink:href="#P"/><use transform="matrix(0.05,0,0,0.05,26.900000000000002,0)" xlink:href="#Q"/><use transform="matrix(0.05,0,0,0.05,36.900000000000006,0)" xlink:href="#R"/></g><path fill="#248814" d="M137 0h-34L2-248h35l83 218 83-218h36" id="S"/><path fill="#248814" d="M24-231v-30h32v30H24zM24 0v-190h32V0H24" id="T"/><path fill="#248814" d="M114-163C36-179 61-72 57 0H25l-1-190h30c1 12-1 29 2 39 6-27 23-49 58-41v29" id="U"/><path fill="#248814" d="M59-47c-2 24 18 29 38 22v24C64 9 27 4 27-40v-127H5v-23h24l9-43h21v43h35v23H59v120" id="V"/><path fill="#248814" d="M84 4C-5 8 30-112 23-190h32v120c0 31 7 50 39 49 72-2 45-101 50-169h31l1 190h-30c-1-10 1-25-2-33-11 22-28 36-60 37" id="W"/><path fill="#248814" d="M141-36C126-15 110 5 73 4 37 3 15-17 15-53c-1-64 63-63 125-63 3-35-9-54-41-54-24 1-41 7-42 31l-33-3c5-37 33-52 76-52 45 0 72 20 72 64v82c-1 20 7 32 28 27v20c-31 9-61-2-59-35zM48-53c0 20 12 33 32 33 41-3 63-29 60-74-43 2-92-5-92 41" id="X"/><path fill="#248814" d="M24 0v-261h32V0H24" id="Y"/><g id="d"><use transform="matrix(0.05,0,0,0.05,0,0)" xlink:href="#S"/><use transform="matrix(0.05,0,0,0.05,11.65,0)" xlink:href="#T"/><use transform="matrix(0.05,0,0,0.05,15.600000000000001,0)" xlink:href="#U"/><use transform="matrix(0.05,0,0,0.05,21.55,0)" xlink:href="#V"/><use transform="matrix(0.05,0,0,0.05,26.55,0)" xlink:href="#W"/><use transform="matrix(0.05,0,0,0.05,36.55,0)" xlink:href="#X"/><use transform="matrix(0.05,0,0,0.05,46.55,0)" xlink:href="#Y"/></g><path fill="#248814" d="M30-248c87 1 191-15 191 75 0 78-77 80-158 76V0H30v-248zm33 125c57 0 124 11 124-50 0-59-68-47-124-48v98" id="Z"/><path fill="#248814" d="M108 0H70L1-190h34L89-25l56-165h34" id="aa"/><path fill="#248814" d="M100-194c63 0 86 42 84 106H49c0 40 14 67 53 68 26 1 43-12 49-29l28 8c-11 28-37 45-77 45C44 4 14-33 15-96c1-61 26-98 85-98zm52 81c6-60-76-77-97-28-3 7-6 17-6 28h103" id="ab"/><g id="e"><use transform="matrix(0.05,0,0,0.05,0,0)" xlink:href="#Z"/><use transform="matrix(0.05,0,0,0.05,12,0)" xlink:href="#U"/><use transform="matrix(0.05,0,0,0.05,17.95,0)" xlink:href="#T"/><use transform="matrix(0.05,0,0,0.05,21.9,0)" xlink:href="#aa"/><use transform="matrix(0.05,0,0,0.05,30.899999999999995,0)" xlink:href="#X"/><use transform="matrix(0.05,0,0,0.05,40.9,0)" xlink:href="#V"/><use transform="matrix(0.05,0,0,0.05,45.9,0)" xlink:href="#ab"/></g><path fill="#248814" d="M212-179c-10-28-35-45-73-45-59 0-87 40-87 99 0 60 29 101 89 101 43 0 62-24 78-52l27 14C228-24 195 4 139 4 59 4 22-46 18-125c-6-104 99-153 187-111 19 9 31 26 39 46" id="ac"/><path fill="#248814" d="M100-194c62-1 85 37 85 99 1 63-27 99-86 99S16-35 15-95c0-66 28-99 85-99zM99-20c44 1 53-31 53-75 0-43-8-75-51-75s-53 32-53 75 10 74 51 75" id="ad"/><path fill="#248814" d="M85-194c31 0 48 13 60 33l-1-100h32l1 261h-30c-2-10 0-23-3-31C134-8 116 4 85 4 32 4 16-35 15-94c0-66 23-100 70-100zm9 24c-40 0-46 34-46 75 0 40 6 74 45 74 42 0 51-32 51-76 0-42-9-74-50-73" id="ae"/><g id="f"><use transform="matrix(0.05,0,0,0.05,0,0)" xlink:href="#ac"/><use transform="matrix(0.05,0,0,0.05,12.950000000000001,0)" xlink:href="#Y"/><use transform="matrix(0.05,0,0,0.05,16.900000000000002,0)" xlink:href="#ad"/><use transform="matrix(0.05,0,0,0.05,26.900000000000002,0)" xlink:href="#W"/><use transform="matrix(0.05,0,0,0.05,36.900000000000006,0)" xlink:href="#ae"/></g><path fill="#d86613" d="M30 0v-248h187v28H63v79h144v27H63v87h162V0H30" id="af"/><path fill="#d86613" d="M212-179c-10-28-35-45-73-45-59 0-87 40-87 99 0 60 29 101 89 101 43 0 62-24 78-52l27 14C228-24 195 4 139 4 59 4 22-46 18-125c-6-104 99-153 187-111 19 9 31 26 39 46" id="ag"/><path fill="#d86613" d="M185-189c-5-48-123-54-124 2 14 75 158 14 163 119 3 78-121 87-175 55-17-10-28-26-33-46l33-7c5 56 141 63 141-1 0-78-155-14-162-118-5-82 145-84 179-34 5 7 8 16 11 25" id="ah"/><g id="g"><use transform="matrix(0.05,0,0,0.05,0,0)" xlink:href="#af"/><use transform="matrix(0.05,0,0,0.05,12,0)" xlink:href="#ag"/><use transform="matrix(0.05,0,0,0.05,24.950000000000003,0)" xlink:href="#ah"/></g><path fill="#d86613" d="M101-251c82-7 93 87 43 132L82-64C71-53 59-42 53-27h129V0H18c2-99 128-94 128-182 0-28-16-43-45-43s-46 15-49 41l-32-3c6-41 34-60 81-64" id="ai"/><g id="h"><use transform="matrix(0.05,0,0,0.05,0,0)" xlink:href="#af"/><use transform="matrix(0.05,0,0,0.05,12,0)" xlink:href="#ag"/><use transform="matrix(0.05,0,0,0.05,24.950000000000003,0)" xlink:href="#ai"/></g><path fill="#d86613" d="M100-194c62-1 85 37 85 99 1 63-27 99-86 99S16-35 15-95c0-66 28-99 85-99zM99-20c44 1 53-31 53-75 0-43-8-75-51-75s-53 32-53 75 10 74 51 75" id="aj"/><path fill="#d86613" d="M117-194c89-4 53 116 60 194h-32v-121c0-31-8-49-39-48C34-167 62-67 57 0H25l-1-190h30c1 10-1 24 2 32 11-22 29-35 61-36" id="ak"/><path fill="#d86613" d="M59-47c-2 24 18 29 38 22v24C64 9 27 4 27-40v-127H5v-23h24l9-43h21v43h35v23H59v120" id="al"/><path fill="#d86613" d="M141-36C126-15 110 5 73 4 37 3 15-17 15-53c-1-64 63-63 125-63 3-35-9-54-41-54-24 1-41 7-42 31l-33-3c5-37 33-52 76-52 45 0 72 20 72 64v82c-1 20 7 32 28 27v20c-31 9-61-2-59-35zM48-53c0 20 12 33 32 33 41-3 63-29 60-74-43 2-92-5-92 41" id="am"/><path fill="#d86613" d="M24-231v-30h32v30H24zM24 0v-190h32V0H24" id="an"/><path fill="#d86613" d="M100-194c63 0 86 42 84 106H49c0 40 14 67 53 68 26 1 43-12 49-29l28 8c-11 28-37 45-77 45C44 4 14-33 15-96c1-61 26-98 85-98zm52 81c6-60-76-77-97-28-3 7-6 17-6 28h103" id="ao"/><path fill="#d86613" d="M114-163C36-179 61-72 57 0H25l-1-190h30c1 12-1 29 2 39 6-27 23-49 58-41v29" id="ap"/><g id="i"><use transform="matrix(0.05,0,0,0.05,0,0)" xlink:href="#ag"/><use transform="matrix(0.05,0,0,0.05,12.950000000000001,0)" xlink:href="#aj"/><use transform="matrix(0.05,0,0,0.05,22.950000000000003,0)" xlink:href="#ak"/><use transform="matrix(0.05,0,0,0.05,32.95,0)" xlink:href="#al"/><use transform="matrix(0.05,0,0,0.05,37.95,0)" xlink:href="#am"/><use transform="matrix(0.05,0,0,0.05,47.95,0)" xlink:href="#an"/><use transform="matrix(0.05,0,0,0.05,51.900000000000006,0)" xlink:href="#ak"/><use transform="matrix(0.05,0,0,0.05,61.900000000000006,0)" xlink:href="#ao"/><use transform="matrix(0.05,0,0,0.05,71.9,0)" xlink:href="#ap"/></g><path fill="#3a414a" d="M63-220v92h138v28H63V0H30v-248h175v28H63" id="aq"/><path fill="#3a414a" d="M114-163C36-179 61-72 57 0H25l-1-190h30c1 12-1 29 2 39 6-27 23-49 58-41v29" id="ar"/><path fill="#3a414a" d="M100-194c62-1 85 37 85 99 1 63-27 99-86 99S16-35 15-95c0-66 28-99 85-99zM99-20c44 1 53-31 53-75 0-43-8-75-51-75s-53 32-53 75 10 74 51 75" id="as"/><path fill="#3a414a" d="M117-194c89-4 53 116 60 194h-32v-121c0-31-8-49-39-48C34-167 62-67 57 0H25l-1-190h30c1 10-1 24 2 32 11-22 29-35 61-36" id="at"/><path fill="#3a414a" d="M59-47c-2 24 18 29 38 22v24C64 9 27 4 27-40v-127H5v-23h24l9-43h21v43h35v23H59v120" id="au"/><path fill="#3a414a" d="M100-194c63 0 86 42 84 106H49c0 40 14 67 53 68 26 1 43-12 49-29l28 8c-11 28-37 45-77 45C44 4 14-33 15-96c1-61 26-98 85-98zm52 81c6-60-76-77-97-28-3 7-6 17-6 28h103" id="av"/><path fill="#3a414a" d="M85-194c31 0 48 13 60 33l-1-100h32l1 261h-30c-2-10 0-23-3-31C134-8 116 4 85 4 32 4 16-35 15-94c0-66 23-100 70-100zm9 24c-40 0-46 34-46 75 0 40 6 74 45 74 42 0 51-32 51-76 0-42-9-74-50-73" id="aw"/><g id="j"><use transform="matrix(0.06790123456790123,0,0,0.06790123456790123,0,0)" xlink:href="#aq"/><use transform="matrix(0.06790123456790123,0,0,0.06790123456790123,14.87037037037037,0)" xlink:href="#ar"/><use transform="matrix(0.06790123456790123,0,0,0.06790123456790123,22.950617283950617,0)" xlink:href="#as"/><use transform="matrix(0.06790123456790123,0,0,0.06790123456790123,36.53086419753086,0)" xlink:href="#at"/><use transform="matrix(0.06790123456790123,0,0,0.06790123456790123,50.11111111111111,0)" xlink:href="#au"/><use transform="matrix(0.06790123456790123,0,0,0.06790123456790123,56.90123456790123,0)" xlink:href="#av"/><use transform="matrix(0.06790123456790123,0,0,0.06790123456790123,70.48148148148147,0)" xlink:href="#at"/><use transform="matrix(0.06790123456790123,0,0,0.06790123456790123,84.06172839506172,0)" xlink:href="#aw"/></g><path fill="#3a414a" d="M160-131c35 5 61 23 61 61C221 17 115-2 30 0v-248c76 3 177-17 177 60 0 33-19 50-47 57zm-97-11c50-1 110 9 110-42 0-47-63-36-110-37v79zm0 115c55-2 124 14 124-45 0-56-70-42-124-44v89" id="ax"/><path fill="#3a414a" d="M141-36C126-15 110 5 73 4 37 3 15-17 15-53c-1-64 63-63 125-63 3-35-9-54-41-54-24 1-41 7-42 31l-33-3c5-37 33-52 76-52 45 0 72 20 72 64v82c-1 20 7 32 28 27v20c-31 9-61-2-59-35zM48-53c0 20 12 33 32 33 41-3 63-29 60-74-43 2-92-5-92 41" id="ay"/><path fill="#3a414a" d="M96-169c-40 0-48 33-48 73s9 75 48 75c24 0 41-14 43-38l32 2c-6 37-31 61-74 61-59 0-76-41-82-99-10-93 101-131 147-64 4 7 5 14 7 22l-32 3c-4-21-16-35-41-35" id="az"/><path fill="#3a414a" d="M143 0L79-87 56-68V0H24v-261h32v163l83-92h37l-77 82L181 0h-38" id="aA"/><g id="k"><use transform="matrix(0.06790123456790123,0,0,0.06790123456790123,0,0)" xlink:href="#ax"/><use transform="matrix(0.06790123456790123,0,0,0.06790123456790123,16.296296296296294,0)" xlink:href="#ay"/><use transform="matrix(0.06790123456790123,0,0,0.06790123456790123,29.87654320987654,0)" xlink:href="#az"/><use transform="matrix(0.06790123456790123,0,0,0.06790123456790123,42.09876543209876,0)" xlink:href="#aA"/><use transform="matrix(0.06790123456790123,0,0,0.06790123456790123,54.32098765432098,0)" xlink:href="#av"/><use transform="matrix(0.06790123456790123,0,0,0.06790123456790123,67.90123456790123,0)" xlink:href="#at"/><use transform="matrix(0.06790123456790123,0,0,0.06790123456790123,81.48148148148147,0)" xlink:href="#aw"/></g><path fill="#333" d="M240-174c0 40-23 61-54 70L253 0h-59l-57-94H76V0H24v-248c93 4 217-23 216 74zM76-134c48-2 112 12 112-38 0-48-66-32-112-35v73" id="aB"/><path fill="#333" d="M24 0v-248h195v40H76v63h132v40H76v65h150V0H24" id="aC"/><path fill="#333" d="M169-182c-1-43-94-46-97-3 18 66 151 10 154 114 3 95-165 93-204 36-6-8-10-19-12-30l50-8c3 46 112 56 116 5-17-69-150-10-154-114-4-87 153-88 188-35 5 8 8 18 10 28" id="aD"/><path fill="#333" d="M136-208V0H84v-208H4v-40h212v40h-80" id="aE"/><g id="l"><use transform="matrix(0.04938271604938272,0,0,0.04938271604938272,0,0)" xlink:href="#aB"/><use transform="matrix(0.04938271604938272,0,0,0.04938271604938272,12.790123456790125,0)" xlink:href="#aC"/><use transform="matrix(0.04938271604938272,0,0,0.04938271604938272,24.641975308641978,0)" xlink:href="#aD"/><use transform="matrix(0.04938271604938272,0,0,0.04938271604938272,36.49382716049383,0)" xlink:href="#aE"/></g><path fill="#333" d="M199 0l-22-63H83L61 0H9l90-248h61L250 0h-51zm-33-102l-36-108c-10 38-24 72-36 108h72" id="aF"/><path fill="#333" d="M24-248c93 1 206-16 204 79-1 75-69 88-152 82V0H24v-248zm52 121c47 0 100 7 100-41 0-47-54-39-100-39v80" id="aG"/><path fill="#333" d="M24 0v-248h52V0H24" id="aH"/><g id="m"><use transform="matrix(0.04938271604938272,0,0,0.04938271604938272,0,0)" xlink:href="#aF"/><use transform="matrix(0.04938271604938272,0,0,0.04938271604938272,12.790123456790125,0)" xlink:href="#aG"/><use transform="matrix(0.04938271604938272,0,0,0.04938271604938272,24.641975308641978,0)" xlink:href="#aH"/></g><path fill="#3a414a" d="M30 0v-248h33v221h125V0H30" id="aI"/><g id="n"><use transform="matrix(0.06790123456790123,0,0,0.06790123456790123,0,0)" xlink:href="#aI"/><use transform="matrix(0.06790123456790123,0,0,0.06790123456790123,13.580246913580247,0)" xlink:href="#as"/><use transform="matrix(0.06790123456790123,0,0,0.06790123456790123,27.160493827160494,0)" xlink:href="#ay"/><use transform="matrix(0.06790123456790123,0,0,0.06790123456790123,40.74074074074074,0)" xlink:href="#aw"/></g><path fill="#3a414a" d="M24 0v-261h32V0H24" id="aJ"/><g id="o"><use transform="matrix(0.06790123456790123,0,0,0.06790123456790123,0,0)" xlink:href="#ax"/><use transform="matrix(0.06790123456790123,0,0,0.06790123456790123,16.296296296296294,0)" xlink:href="#ay"/><use transform="matrix(0.06790123456790123,0,0,0.06790123456790123,29.87654320987654,0)" xlink:href="#aJ"/><use transform="matrix(0.06790123456790123,0,0,0.06790123456790123,35.24074074074074,0)" xlink:href="#ay"/><use transform="matrix(0.06790123456790123,0,0,0.06790123456790123,48.82098765432099,0)" xlink:href="#at"/><use transform="matrix(0.06790123456790123,0,0,0.06790123456790123,62.401234567901234,0)" xlink:href="#az"/><use transform="matrix(0.06790123456790123,0,0,0.06790123456790123,74.62345679012346,0)" xlink:href="#av"/><use transform="matrix(0.06790123456790123,0,0,0.06790123456790123,88.2037037037037,0)" xlink:href="#ar"/></g><linearGradient gradientUnits="userSpaceOnUse" id="p" x1="-280" y1="880" x2="-160" y2="760"><stop offset="0%" stop-color="#bd0816"/><stop offset="100%" stop-color="#ff5252"/></linearGradient><path fill="#3a414a" d="M205 0l-28-72H64L36 0H1l101-248h38L239 0h-34zm-38-99l-47-123c-12 45-31 82-46 123h93" id="aK"/><path fill="#3a414a" d="M84 4C-5 8 30-112 23-190h32v120c0 31 7 50 39 49 72-2 45-101 50-169h31l1 190h-30c-1-10 1-25-2-33-11 22-28 36-60 37" id="aL"/><path fill="#3a414a" d="M106-169C34-169 62-67 57 0H25v-261h32l-1 103c12-21 28-36 61-36 89 0 53 116 60 194h-32v-121c2-32-8-49-39-48" id="aM"/><path fill="#3a414a" d="M24-231v-30h32v30H24zM24 0v-190h32V0H24" id="aN"/><g id="q"><use transform="matrix(0.06790123456790123,0,0,0.06790123456790123,0,0)" xlink:href="#aK"/><use transform="matrix(0.06790123456790123,0,0,0.06790123456790123,16.296296296296294,0)" xlink:href="#aL"/><use transform="matrix(0.06790123456790123,0,0,0.06790123456790123,29.87654320987654,0)" xlink:href="#au"/><use transform="matrix(0.06790123456790123,0,0,0.06790123456790123,36.666666666666664,0)" xlink:href="#aM"/><use transform="matrix(0.06790123456790123,0,0,0.06790123456790123,50.24691358024691,0)" xlink:href="#av"/><use transform="matrix(0.06790123456790123,0,0,0.06790123456790123,63.82716049382716,0)" xlink:href="#at"/><use transform="matrix(0.06790123456790123,0,0,0.06790123456790123,77.4074074074074,0)" xlink:href="#au"/><use transform="matrix(0.06790123456790123,0,0,0.06790123456790123,84.19753086419753,0)" xlink:href="#aN"/><use transform="matrix(0.06790123456790123,0,0,0.06790123456790123,89.56172839506173,0)" xlink:href="#az"/><use transform="matrix(0.06790123456790123,0,0,0.06790123456790123,101.78395061728395,0)" xlink:href="#ay"/><use transform="matrix(0.06790123456790123,0,0,0.06790123456790123,115.3641975308642,0)" xlink:href="#au"/><use transform="matrix(0.06790123456790123,0,0,0.06790123456790123,122.15432098765433,0)" xlink:href="#aN"/><use transform="matrix(0.06790123456790123,0,0,0.06790123456790123,127.51851851851853,0)" xlink:href="#as"/><use transform="matrix(0.06790123456790123,0,0,0.06790123456790123,141.0987654320988,0)" xlink:href="#at"/></g><path fill="#3a414a" d="M210-169c-67 3-38 105-44 169h-31v-121c0-29-5-50-35-48C34-165 62-65 56 0H25l-1-190h30c1 10-1 24 2 32 10-44 99-50 107 0 11-21 27-35 58-36 85-2 47 119 55 194h-31v-121c0-29-5-49-35-48" id="aO"/><path fill="#3a414a" d="M9 0v-24l116-142H16v-24h144v24L44-24h123V0H9" id="aP"/><g id="r"><use transform="matrix(0.06172839506172839,0,0,0.06172839506172839,0,0)" xlink:href="#aK"/><use transform="matrix(0.06172839506172839,0,0,0.06172839506172839,14.814814814814813,0)" xlink:href="#aO"/><use transform="matrix(0.06172839506172839,0,0,0.06172839506172839,33.2716049382716,0)" xlink:href="#ay"/><use transform="matrix(0.06172839506172839,0,0,0.06172839506172839,45.61728395061728,0)" xlink:href="#aP"/><use transform="matrix(0.06172839506172839,0,0,0.06172839506172839,56.72839506172839,0)" xlink:href="#as"/><use transform="matrix(0.06172839506172839,0,0,0.06172839506172839,69.07407407407408,0)" xlink:href="#at"/></g><path fill="#3a414a" d="M179-190L93 31C79 59 56 82 12 73V49c39 6 53-20 64-50L1-190h34L92-34l54-156h33" id="aQ"/><g id="s"><use transform="matrix(0.06172839506172839,0,0,0.06172839506172839,0,0)" xlink:href="#H"/><use transform="matrix(0.06172839506172839,0,0,0.06172839506172839,15.987654320987653,0)" xlink:href="#aQ"/><use transform="matrix(0.06172839506172839,0,0,0.06172839506172839,27.098765432098766,0)" xlink:href="#at"/><use transform="matrix(0.06172839506172839,0,0,0.06172839506172839,39.44444444444444,0)" xlink:href="#ay"/><use transform="matrix(0.06172839506172839,0,0,0.06172839506172839,51.79012345679012,0)" xlink:href="#aO"/><use transform="matrix(0.06172839506172839,0,0,0.06172839506172839,70.24691358024691,0)" xlink:href="#as"/><use transform="matrix(0.06172839506172839,0,0,0.06172839506172839,82.5925925925926,0)" xlink:href="#H"/><use transform="matrix(0.06172839506172839,0,0,0.06172839506172839,98.58024691358025,0)" xlink:href="#ax"/></g><path fill="#3a414a" d="M266 0h-40l-56-210L115 0H75L2-248h35L96-30l15-64 43-154h32l59 218 59-218h35" id="aR"/><g id="t"><use transform="matrix(0.06172839506172839,0,0,0.06172839506172839,0,0)" xlink:href="#aK"/><use transform="matrix(0.06172839506172839,0,0,0.06172839506172839,14.012345679012345,0)" xlink:href="#aR"/><use transform="matrix(0.06172839506172839,0,0,0.06172839506172839,34.938271604938265,0)" xlink:href="#J"/></g><path fill="#3a414a" d="M115-194c55 1 70 41 70 98S169 2 115 4C84 4 66-9 55-30l1 105H24l-1-265h31l2 30c10-21 28-34 59-34zm-8 174c40 0 45-34 45-75s-6-73-45-74c-42 0-51 32-51 76 0 43 10 73 51 73" id="aS"/><g id="u"><use transform="matrix(0.06172839506172839,0,0,0.06172839506172839,0,0)" xlink:href="#aK"/><use transform="matrix(0.06172839506172839,0,0,0.06172839506172839,14.814814814814813,0)" xlink:href="#aS"/><use transform="matrix(0.06172839506172839,0,0,0.06172839506172839,27.160493827160494,0)" xlink:href="#aS"/><use transform="matrix(0.06172839506172839,0,0,0.06172839506172839,39.50617283950617,0)" xlink:href="#J"/><use transform="matrix(0.06172839506172839,0,0,0.06172839506172839,54.32098765432099,0)" xlink:href="#aQ"/><use transform="matrix(0.06172839506172839,0,0,0.06172839506172839,65.4320987654321,0)" xlink:href="#at"/><use transform="matrix(0.06172839506172839,0,0,0.06172839506172839,77.77777777777779,0)" xlink:href="#az"/></g><g id="v"><use transform="matrix(0.06172839506172839,0,0,0.06172839506172839,0,0)" xlink:href="#aK"/><use transform="matrix(0.06172839506172839,0,0,0.06172839506172839,14.814814814814813,0)" xlink:href="#aO"/><use transform="matrix(0.06172839506172839,0,0,0.06172839506172839,33.2716049382716,0)" xlink:href="#ay"/><use transform="matrix(0.06172839506172839,0,0,0.06172839506172839,45.61728395061728,0)" xlink:href="#aP"/><use transform="matrix(0.06172839506172839,0,0,0.06172839506172839,56.72839506172839,0)" xlink:href="#as"/><use transform="matrix(0.06172839506172839,0,0,0.06172839506172839,69.07407407407408,0)" xlink:href="#at"/></g><path fill="#3a414a" d="M233-177c-1 41-23 64-60 70L243 0h-38l-65-103H63V0H30v-248c88 3 205-21 203 71zM63-129c60-2 137 13 137-47 0-61-80-42-137-45v92" id="aT"/><g id="w"><use transform="matrix(0.06172839506172839,0,0,0.06172839506172839,0,0)" xlink:href="#aT"/><use transform="matrix(0.06172839506172839,0,0,0.06172839506172839,15.987654320987653,0)" xlink:href="#H"/><use transform="matrix(0.06172839506172839,0,0,0.06172839506172839,31.975308641975307,0)" xlink:href="#J"/></g><path fill="#3a414a" d="M108 0H70L1-190h34L89-25l56-165h34" id="aU"/><path fill="#3a414a" d="M135-143c-3-34-86-38-87 0 15 53 115 12 119 90S17 21 10-45l28-5c4 36 97 45 98 0-10-56-113-15-118-90-4-57 82-63 122-42 12 7 21 19 24 35" id="aV"/><g id="x"><use transform="matrix(0.06172839506172839,0,0,0.06172839506172839,0,0)" xlink:href="#J"/><use transform="matrix(0.06172839506172839,0,0,0.06172839506172839,14.814814814814813,0)" xlink:href="#av"/><use transform="matrix(0.06172839506172839,0,0,0.06172839506172839,27.160493827160494,0)" xlink:href="#ar"/><use transform="matrix(0.06172839506172839,0,0,0.06172839506172839,34.50617283950617,0)" xlink:href="#aU"/><use transform="matrix(0.06172839506172839,0,0,0.06172839506172839,45.61728395061728,0)" xlink:href="#av"/><use transform="matrix(0.06172839506172839,0,0,0.06172839506172839,57.962962962962955,0)" xlink:href="#ar"/><use transform="matrix(0.06172839506172839,0,0,0.06172839506172839,65.30864197530863,0)" xlink:href="#aJ"/><use transform="matrix(0.06172839506172839,0,0,0.06172839506172839,70.18518518518518,0)" xlink:href="#av"/><use transform="matrix(0.06172839506172839,0,0,0.06172839506172839,82.53086419753086,0)" xlink:href="#aV"/><use transform="matrix(0.06172839506172839,0,0,0.06172839506172839,93.64197530864197,0)" xlink:href="#aV"/></g><path fill="#3a414a" d="M212-179c-10-28-35-45-73-45-59 0-87 40-87 99 0 60 29 101 89 101 43 0 62-24 78-52l27 14C228-24 195 4 139 4 59 4 22-46 18-125c-6-104 99-153 187-111 19 9 31 26 39 46" id="aW"/><g id="y"><use transform="matrix(0.06172839506172839,0,0,0.06172839506172839,0,0)" xlink:href="#aW"/><use transform="matrix(0.06172839506172839,0,0,0.06172839506172839,15.987654320987653,0)" xlink:href="#ay"/><use transform="matrix(0.06172839506172839,0,0,0.06172839506172839,28.333333333333332,0)" xlink:href="#az"/><use transform="matrix(0.06172839506172839,0,0,0.06172839506172839,39.44444444444444,0)" xlink:href="#aM"/><use transform="matrix(0.06172839506172839,0,0,0.06172839506172839,51.79012345679012,0)" xlink:href="#av"/></g><path fill="#3a414a" d="M206 0h-36l-40-164L89 0H53L-1-190h32L70-26l43-164h34l41 164 42-164h31" id="aX"/><g id="z"><use transform="matrix(0.06790123456790123,0,0,0.06790123456790123,0,0)" xlink:href="#ax"/><use transform="matrix(0.06790123456790123,0,0,0.06790123456790123,16.296296296296294,0)" xlink:href="#ar"/><use transform="matrix(0.06790123456790123,0,0,0.06790123456790123,24.37654320987654,0)" xlink:href="#as"/><use transform="matrix(0.06790123456790123,0,0,0.06790123456790123,37.95679012345679,0)" xlink:href="#aX"/><use transform="matrix(0.06790123456790123,0,0,0.06790123456790123,55.5432098765432,0)" xlink:href="#aV"/><use transform="matrix(0.06790123456790123,0,0,0.06790123456790123,67.76543209876542,0)" xlink:href="#av"/><use transform="matrix(0.06790123456790123,0,0,0.06790123456790123,81.34567901234567,0)" xlink:href="#ar"/></g><path fill="#333" d="M133-34C117-15 103 5 69 4 32 3 11-16 11-54c-1-60 55-63 116-61 1-26-3-47-28-47-18 1-26 9-28 27l-52-2c7-38 36-58 82-57s74 22 75 68l1 82c-1 14 12 18 25 15v27c-30 8-71 5-69-32zm-48 3c29 0 43-24 42-57-32 0-66-3-65 30 0 17 8 27 23 27" id="aY"/><path fill="#333" d="M135-194c53 0 70 44 70 98 0 56-19 98-73 100-31 1-45-17-59-34 3 33 2 69 2 105H25l-1-265h48c2 10 0 23 3 31 11-24 29-35 60-35zM114-30c33 0 39-31 40-66 0-38-9-64-40-64-56 0-55 130 0 130" id="aZ"/><path fill="#333" d="M24 0v-54h51V0H24" id="ba"/><g id="A"><use transform="matrix(0.06790123456790123,0,0,0.06790123456790123,0,0)" xlink:href="#aY"/><use transform="matrix(0.06790123456790123,0,0,0.06790123456790123,13.580246913580247,0)" xlink:href="#aZ"/><use transform="matrix(0.06790123456790123,0,0,0.06790123456790123,28.450617283950617,0)" xlink:href="#aZ"/><use transform="matrix(0.06790123456790123,0,0,0.06790123456790123,43.32098765432099,0)" xlink:href="#ba"/></g><path fill="#333" d="M25-224v-37h50v37H25zM25 0v-190h50V0H25" id="bb"/><g id="B"><use transform="matrix(0.06790123456790123,0,0,0.06790123456790123,0,0)" xlink:href="#aY"/><use transform="matrix(0.06790123456790123,0,0,0.06790123456790123,13.580246913580247,0)" xlink:href="#aZ"/><use transform="matrix(0.06790123456790123,0,0,0.06790123456790123,28.450617283950617,0)" xlink:href="#bb"/><use transform="matrix(0.06790123456790123,0,0,0.06790123456790123,35.24074074074074,0)" xlink:href="#ba"/></g><path fill="#3a414a" d="M127-220V0H93v-220H8v-28h204v28h-85" id="bc"/><g id="C"><use transform="matrix(0.06790123456790123,0,0,0.06790123456790123,0,0)" xlink:href="#bc"/><use transform="matrix(0.06790123456790123,0,0,0.06790123456790123,14.87037037037037,0)" xlink:href="#aM"/><use transform="matrix(0.06790123456790123,0,0,0.06790123456790123,28.450617283950617,0)" xlink:href="#aN"/><use transform="matrix(0.06790123456790123,0,0,0.06790123456790123,33.81481481481482,0)" xlink:href="#ar"/><use transform="matrix(0.06790123456790123,0,0,0.06790123456790123,41.89506172839507,0)" xlink:href="#aw"/></g><path fill="#3a414a" d="M30-248c87 1 191-15 191 75 0 78-77 80-158 76V0H30v-248zm33 125c57 0 124 11 124-50 0-59-68-47-124-48v98" id="bd"/><g id="D"><use transform="matrix(0.06790123456790123,0,0,0.06790123456790123,0,0)" xlink:href="#bd"/><use transform="matrix(0.06790123456790123,0,0,0.06790123456790123,16.296296296296294,0)" xlink:href="#ay"/><use transform="matrix(0.06790123456790123,0,0,0.06790123456790123,29.87654320987654,0)" xlink:href="#ar"/><use transform="matrix(0.06790123456790123,0,0,0.06790123456790123,37.95679012345679,0)" xlink:href="#au"/><use transform="matrix(0.06790123456790123,0,0,0.06790123456790123,44.74691358024691,0)" xlink:href="#aQ"/></g><g id="E"><use transform="matrix(0.06790123456790123,0,0,0.06790123456790123,0,0)" xlink:href="#aK"/><use transform="matrix(0.06790123456790123,0,0,0.06790123456790123,16.296296296296294,0)" xlink:href="#aS"/><use transform="matrix(0.06790123456790123,0,0,0.06790123456790123,29.87654320987654,0)" xlink:href="#aS"/><use transform="matrix(0.06790123456790123,0,0,0.06790123456790123,43.456790123456784,0)" xlink:href="#aJ"/><use transform="matrix(0.06790123456790123,0,0,0.06790123456790123,48.82098765432098,0)" xlink:href="#aN"/><use transform="matrix(0.06790123456790123,0,0,0.06790123456790123,54.185185185185176,0)" xlink:href="#az"/><use transform="matrix(0.06790123456790123,0,0,0.06790123456790123,66.40740740740739,0)" xlink:href="#ay"/><use transform="matrix(0.06790123456790123,0,0,0.06790123456790123,79.98765432098764,0)" xlink:href="#au"/><use transform="matrix(0.06790123456790123,0,0,0.06790123456790123,86.77777777777777,0)" xlink:href="#aN"/><use transform="matrix(0.06790123456790123,0,0,0.06790123456790123,92.14197530864197,0)" xlink:href="#as"/><use transform="matrix(0.06790123456790123,0,0,0.06790123456790123,105.72222222222223,0)" xlink:href="#at"/><use transform="matrix(0.06790123456790123,0,0,0.06790123456790123,119.30246913580248,0)" xlink:href="#aV"/></g><path fill="#3a414a" d="M137 0h-34L2-248h35l83 218 83-218h36" id="be"/><g id="F"><use transform="matrix(0.0987654320987654,0,0,0.0987654320987654,0,0)" xlink:href="#be"/><use transform="matrix(0.0987654320987654,0,0,0.0987654320987654,23.012345679012338,0)" xlink:href="#aN"/><use transform="matrix(0.0987654320987654,0,0,0.0987654320987654,30.814814814814806,0)" xlink:href="#au"/><use transform="matrix(0.0987654320987654,0,0,0.0987654320987654,40.69135802469134,0)" xlink:href="#au"/><use transform="matrix(0.0987654320987654,0,0,0.0987654320987654,50.56790123456788,0)" xlink:href="#aM"/><use transform="matrix(0.0987654320987654,0,0,0.0987654320987654,70.32098765432096,0)" xlink:href="#ay"/><use transform="matrix(0.0987654320987654,0,0,0.0987654320987654,90.07407407407403,0)" xlink:href="#aJ"/></g><path fill="#3a414a" d="M194 0L95-120 63-95V0H30v-248h33v124l119-124h40L117-140 236 0h-42" id="bf"/><g id="G"><use transform="matrix(0.0987654320987654,0,0,0.0987654320987654,0,0)" xlink:href="#bf"/><use transform="matrix(0.0987654320987654,0,0,0.0987654320987654,23.703703703703695,0)" xlink:href="#ay"/><use transform="matrix(0.0987654320987654,0,0,0.0987654320987654,43.45679012345677,0)" xlink:href="#aL"/><use transform="matrix(0.0987654320987654,0,0,0.0987654320987654,63.209876543209845,0)" xlink:href="#aJ"/></g></defs></g></svg>